<?xml version="1.0" standalone="no"?>
<!DOCTYPE svg PUBLIC "-//W3C//DTD SVG 20010904//EN"
 "http://www.w3.org/TR/2001/REC-SVG-20010904/DTD/svg10.dtd">
<svg version="1.0" xmlns="http://www.w3.org/2000/svg"
 width="192.000000pt" height="192.000000pt" viewBox="0 0 192.000000 192.000000"
 preserveAspectRatio="xMidYMid meet">
<metadata>
Created by potrace 1.11, written by Peter Selinger 2001-2013
</metadata>
<g transform="translate(0.000000,192.000000) scale(0.100000,-0.100000)"
fill="#000000" stroke="none">
<path d="M7 1913 c-4 -3 -7 -430 -7 -948 0 -782 2 -944 14 -954 10 -8 268 -10
957 -9 l944 3 0 955 0 955 -951 3 c-523 1 -954 -1 -957 -5z m1040 -178 c19 -8
44 -15 55 -15 20 0 37 -28 22 -39 -5 -3 -10 -14 -10 -24 -2 -17 0 -17 22 -3
14 10 25 12 29 6 4 -6 10 -8 15 -5 11 7 40 -22 40 -41 0 -17 -16 -19 -23 -1
-3 6 -6 2 -6 -9 -1 -12 5 -24 13 -27 14 -6 54 -127 46 -137 -3 -3 -25 -4 -50
-2 -25 1 -52 -2 -60 -8 -11 -8 -8 -9 13 -4 34 8 35 -9 1 -25 -45 -20 -56 7
-29 72 14 35 14 36 -8 35 -12 -1 -34 -10 -48 -20 -24 -16 -28 -16 -33 -2 -3 9
-6 25 -6 37 0 20 -1 20 -17 5 -12 -12 -13 -21 -6 -30 16 -20 26 -78 14 -78
-17 0 -13 -37 4 -44 8 -3 15 -13 15 -23 0 -15 2 -16 10 -3 8 13 10 12 10 -3 0
-10 -7 -20 -16 -24 -12 -4 -14 -14 -10 -34 3 -16 2 -29 -3 -29 -13 0 -21 27
-21 74 0 39 -3 43 -37 58 l-38 17 28 -23 c28 -22 28 -22 8 -40 -29 -27 -51
-14 -51 30 l0 37 -22 -19 -21 -19 19 34 c10 18 47 64 82 101 34 37 62 70 62
73 0 2 -11 7 -25 9 -20 4 -23 3 -14 -8 9 -11 0 -24 -37 -61 -26 -26 -52 -48
-58 -49 -40 -4 -39 -3 -25 -20 11 -14 10 -18 -6 -30 -26 -19 -39 -18 -60 6
-16 18 -16 21 -2 43 12 19 13 28 4 47 -7 13 -18 25 -24 28 -20 6 -15 -26 5
-37 15 -9 15 -10 -5 -11 -13 0 -32 9 -43 20 -16 16 -18 25 -10 40 9 18 8 20
-15 20 -16 0 -25 -6 -25 -15 0 -16 -12 -20 -23 -8 -4 3 3 17 15 30 12 13 16
23 10 23 -7 0 -12 5 -12 11 0 6 9 8 23 4 17 -6 19 -4 11 5 -9 9 -6 18 11 36
12 13 27 24 32 24 6 0 22 9 37 21 15 11 39 25 54 29 45 14 150 11 189 -5z
m-277 -260 c7 -9 10 -18 7 -21 -10 -10 -47 7 -47 22 0 19 24 18 40 -1z m0 -45
c0 -5 -4 -10 -10 -10 -5 0 -10 5 -10 10 0 6 5 10 10 10 6 0 10 -4 10 -10z
m-35 -42 c13 -20 17 -21 26 -8 9 13 10 13 6 -1 -3 -9 -1 -21 4 -26 5 -5 4 -16
-5 -28 -13 -18 -15 -18 -30 -2 -10 9 -22 17 -29 17 -6 0 -3 6 7 13 17 12 17
14 2 20 -17 7 -23 37 -7 37 6 0 17 -10 26 -22z m81 -4 c-3 -8 -1 -14 3 -14 5
0 7 -9 4 -20 -5 -20 -6 -20 -23 -3 -10 10 -14 22 -10 27 5 5 6 15 3 22 -4 10
0 12 11 8 10 -4 15 -13 12 -20z m462 -1 c37 -53 64 -115 54 -125 -6 -6 -17 0
-30 16 -18 24 -23 25 -46 15 -17 -8 -26 -20 -26 -36 0 -29 -7 -29 -36 -2 -13
12 -34 27 -46 33 -14 7 -24 22 -26 38 -2 19 -8 25 -18 21 -8 -3 -14 0 -14 6 0
14 16 14 42 0 27 -15 63 -4 76 23 10 22 11 22 11 3 1 -14 8 -21 21 -21 13 0
19 5 15 13 -3 7 -8 20 -11 28 -10 25 14 17 34 -12z m-94 0 c4 -9 2 -21 -4 -27
-7 -7 -10 -5 -10 7 0 9 -5 17 -11 17 -5 0 -7 5 -4 10 9 15 22 12 29 -7z m-274
-37 c0 -2 3 -11 6 -20 3 -9 1 -16 -5 -16 -6 0 -11 7 -11 15 0 8 -3 15 -7 15
-5 0 -9 -20 -11 -44 -2 -37 2 -46 23 -60 30 -20 59 -20 75 -1 15 18 30 19 30
3 0 -7 11 -14 25 -14 21 -2 24 1 14 12 -15 18 5 44 35 44 17 0 18 -2 6 -10
-12 -8 -12 -10 -1 -10 9 0 12 -8 9 -25 -4 -19 -1 -25 12 -25 26 0 46 -28 32
-42 -18 -18 -15 -26 10 -30 14 -2 24 -12 28 -28 4 -17 14 -26 30 -28 l25 -3
-22 16 c-15 10 -23 26 -23 43 l1 27 15 -28 c18 -34 29 -30 15 5 -19 49 36 102
75 74 16 -12 15 -14 -13 -20 -22 -5 -32 -14 -36 -32 -2 -13 0 -27 4 -30 5 -3
9 4 9 15 0 22 17 37 28 26 4 -4 1 -10 -5 -12 -16 -6 -17 -34 -2 -31 17 4 79
-80 79 -106 0 -12 -5 -27 -12 -34 -9 -9 -9 -12 0 -12 7 0 12 -7 12 -16 0 -21
-32 -74 -44 -74 -6 0 -5 5 2 12 7 7 12 21 12 32 0 21 -37 66 -53 66 -6 0 0
-11 13 -25 23 -24 23 -26 7 -43 -15 -14 -20 -15 -38 -4 -18 11 -20 11 -17 0 3
-7 17 -14 31 -16 34 -4 35 -22 2 -22 -14 0 -25 -4 -25 -9 0 -5 8 -7 19 -4 25
6 34 -10 12 -24 -13 -8 -22 -6 -40 8 -12 10 -20 23 -17 28 9 14 -17 19 -31 6
-6 -7 -11 -20 -10 -30 1 -10 -3 -20 -10 -22 -7 -3 -10 3 -6 15 3 13 -2 22 -14
26 -15 6 -13 10 15 22 43 18 33 34 -18 27 -36 -5 -40 -3 -40 16 0 17 11 27 23
19 9 -6 47 26 47 41 0 20 -27 48 -37 37 -3 -3 -1 -6 6 -6 21 0 8 -45 -14 -47
-11 -2 -14 0 -7 3 18 8 15 24 -5 24 -10 1 -29 7 -42 14 -23 13 -23 13 -2 19
30 7 29 47 -1 46 -13 0 -17 -3 -10 -6 6 -2 12 -9 12 -14 0 -13 -74 -11 -88 3
-9 9 -3 15 26 26 20 8 49 16 65 19 15 3 27 9 27 14 0 19 -32 21 -63 4 -49 -26
-90 -12 -68 24 7 10 13 11 32 1 23 -11 23 -11 4 5 -11 9 -29 14 -41 11 -27 -7
-109 37 -131 71 -14 21 -14 26 -2 34 11 7 11 11 1 17 -11 7 -11 11 0 19 22 17
68 30 68 19z m-140 -52 c0 -2 -12 -4 -26 -4 -14 0 -23 4 -20 9 6 8 46 4 46 -5z
m23 -29 c-3 -9 -8 -14 -10 -11 -3 3 -2 9 2 15 9 16 15 13 8 -4z m157 -5 c0
-11 -4 -20 -10 -20 -5 0 -10 9 -10 20 0 11 5 20 10 20 6 0 10 -9 10 -20z m330
11 c0 -10 -30 -24 -37 -17 -3 3 -2 9 2 15 8 13 35 15 35 2z m-422 -78 c2 -9
-7 -13 -27 -13 -34 0 -50 16 -24 23 27 7 46 3 51 -10z m-24 -60 c-10 -7 -23
-13 -28 -12 -6 0 -6 3 1 5 7 3 10 11 7 19 -3 7 2 15 13 17 25 5 30 -12 7 -29z
m-89 -93 c-5 -15 1 -26 21 -43 100 -80 264 -277 230 -277 -8 0 -92 40 -188 89
l-174 89 25 31 c31 37 37 38 45 7 4 -16 35 -45 87 -81 44 -32 82 -55 85 -53 5
6 -65 78 -99 101 -16 10 -24 23 -21 32 3 8 -4 26 -15 41 -28 36 -28 84 1 84 5
0 6 -9 3 -20z m280 -62 c16 -24 40 -56 54 -71 24 -26 25 -29 9 -38 -11 -6 -18
-22 -18 -39 0 -30 14 -41 23 -17 2 6 6 10 9 7 14 -15 88 -131 107 -169 l23
-44 -28 7 c-58 15 -119 52 -139 84 -11 18 -40 60 -65 94 -127 171 -123 165
-116 193 10 38 27 27 47 -31 l18 -49 -1 49 c-2 37 3 52 17 62 22 17 25 15 60
-38z m177 -229 c24 -28 65 -75 92 -105 40 -45 45 -54 29 -54 -22 0 -71 52
-139 148 -53 75 -42 82 18 11z m-834 -184 c3 -16 1 -18 -9 -7 -7 6 -22 12 -32
12 -18 0 -19 -6 -15 -65 3 -49 1 -65 -9 -65 -9 0 -13 18 -13 65 0 56 -3 65
-18 65 -10 0 -23 -5 -30 -12 -9 -9 -12 -9 -12 3 0 26 12 30 74 27 52 -3 61 -6
64 -23z m172 -50 c0 -43 -4 -75 -10 -75 -5 0 -10 11 -10 24 0 31 -22 48 -57
44 -25 -3 -28 -7 -27 -35 1 -21 -3 -33 -11 -33 -10 0 -14 20 -17 70 -2 58 0
70 12 70 11 0 16 -9 15 -27 0 -30 19 -39 61 -29 18 5 25 13 24 29 -3 31 -1 37
10 37 6 0 10 -32 10 -75z m145 65 c4 -6 -8 -10 -29 -10 -32 0 -36 -3 -36 -25
0 -21 5 -25 33 -27 l32 -1 -32 -4 c-23 -3 -33 -10 -33 -21 0 -31 15 -44 43
-36 17 4 27 2 27 -5 0 -6 -19 -11 -44 -11 l-44 0 -4 71 c-2 39 -1 73 1 75 9 8
80 4 86 -6z m-98 -305 c49 -111 50 -115 28 -115 -17 0 -26 9 -34 30 -9 26 -15
30 -48 30 -45 0 -58 -7 -67 -37 -4 -14 -15 -23 -27 -23 -18 0 -18 4 9 58 16
31 39 83 51 115 13 31 26 57 30 57 4 0 30 -52 58 -115z m567 101 c18 -8 41
-24 50 -37 19 -27 21 -87 4 -123 -22 -50 -93 -76 -153 -56 -93 31 -102 169
-13 213 41 20 69 21 112 3z m500 4 c14 -5 26 -16 26 -25 0 -19 0 -19 -39 1
-25 13 -35 13 -46 4 -25 -21 -17 -35 38 -76 60 -45 71 -80 37 -114 -26 -26
-97 -25 -114 2 -15 24 0 34 22 15 22 -20 53 -22 70 -5 21 21 13 37 -44 78 -49
37 -55 45 -52 73 4 46 50 67 102 47z m-1254 -12 c0 -9 -15 -12 -50 -10 l-50 4
0 -35 c0 -40 16 -51 66 -41 27 5 34 3 34 -10 0 -14 -8 -16 -51 -10 l-51 7 3
-57 c4 -52 3 -56 -18 -56 -22 0 -23 3 -23 110 l0 110 70 0 c49 0 70 -4 70 -12z
m335 -68 c31 -44 58 -80 61 -80 2 0 29 34 59 75 31 41 58 75 60 75 3 0 5 -47
5 -105 0 -100 -1 -105 -21 -105 -17 0 -20 5 -15 28 3 15 2 43 -2 62 l-8 35
-43 -63 c-24 -35 -46 -60 -51 -55 -4 4 -24 33 -44 63 l-36 55 0 -63 c0 -48 -3
-62 -15 -62 -12 0 -15 19 -15 110 0 61 2 110 4 110 3 0 30 -36 61 -80z m587
-10 c1 -49 8 -93 13 -98 23 -22 71 -23 96 -3 22 18 24 26 24 105 0 70 3 86 15
86 13 0 14 -14 10 -90 -6 -112 -23 -135 -100 -135 -77 0 -94 23 -98 135 -4 84
-3 90 16 90 18 0 20 -8 24 -90z"/>
<path d="M1050 1709 c0 -5 5 -7 10 -4 6 3 10 8 10 11 0 2 -4 4 -10 4 -5 0 -10
-5 -10 -11z"/>
<path d="M1147 1603 c-4 -3 -7 -17 -7 -29 0 -17 4 -22 15 -18 8 4 15 17 15 30
0 23 -10 31 -23 17z"/>
<path d="M935 1560 c3 -5 8 -10 11 -10 2 0 4 5 4 10 0 6 -5 10 -11 10 -5 0 -7
-4 -4 -10z"/>
<path d="M888 1523 c7 -3 16 -2 19 1 4 3 -2 6 -13 5 -11 0 -14 -3 -6 -6z"/>
<path d="M728 1343 c6 -2 18 -2 25 0 6 3 1 5 -13 5 -14 0 -19 -2 -12 -5z"/>
<path d="M1147 1085 c-4 -8 -2 -17 3 -20 6 -4 10 3 10 14 0 25 -6 27 -13 6z"/>
<path d="M1296 1059 c-19 -19 -19 -19 0 -19 11 0 25 -5 32 -12 15 -15 15 1 -1
28 -12 21 -12 21 -31 3z"/>
<path d="M1200 1050 c-17 -11 -7 -23 21 -25 13 -1 19 4 17 13 -4 19 -19 24
-38 12z"/>
<path d="M1195 974 c-20 -15 -20 -16 4 -12 14 2 26 9 29 16 5 16 -9 15 -33 -4z"/>
<path d="M512 303 c-5 -15 -13 -36 -17 -45 -6 -15 -1 -18 29 -18 20 0 36 2 36
4 0 2 -8 23 -19 46 l-18 42 -11 -29z"/>
<path d="M1063 360 c-49 -19 -60 -109 -19 -156 31 -37 90 -39 117 -5 28 34 26
111 -3 138 -28 25 -66 34 -95 23z"/>
</g>
</svg>
